<svg width="512" height="512" viewBox="0 0 512 512" fill="none" xmlns="http://www.w3.org/2000/svg">
  <!-- Circular Clipping Mask -->
  <circle cx="256" cy="256" r="256" fill="white"/>
  
  <g transform="translate(68, 88) scale(0.72)">
    <!-- Semi-circle Arrow Path (Approximation) -->
    <path d="M 120 280 C 120 440 380 440 480 300 L 520 340 L 530 180 L 380 240 L 420 280 C 340 380 180 380 180 280 Z" fill="#991b1b"/>
    
    <!-- Central GPS Pin -->
    <path d="M 280 260 C 280 230 310 230 310 260 C 310 290 280 320 280 360 C 280 320 250 290 250 260 C 250 230 280 230 280 260 Z" fill="#991b1b"/>
    <circle cx="280" cy="260" r="3" fill="white"/>
    
    <!-- WiFi Signals -->
    <path d="M 230 180 C 250 150 310 150 330 180" stroke="#991b1b" stroke-width="15" stroke-linecap="round" fill="none"/>
    <path d="M 250 210 C 260 195 300 195 310 210" stroke="#991b1b" stroke-width="12" stroke-linecap="round" fill="none"/>
    <path d="M 270 235 C 275 230 285 230 290 235" stroke="#991b1b" stroke-width="8" stroke-linecap="round" fill="none"/>
  </g>
</svg>
